<?xml version="1.0" standalone="no"?>
<!DOCTYPE svg PUBLIC "-//W3C//DTD SVG 20010904//EN"
 "http://www.w3.org/TR/2001/REC-SVG-20010904/DTD/svg10.dtd">
<svg version="1.0" xmlns="http://www.w3.org/2000/svg"
 width="512.000000pt" height="512.000000pt" viewBox="0 0 512.000000 512.000000"
 preserveAspectRatio="xMidYMid meet">

<g transform="translate(0.000000,512.000000) scale(0.100000,-0.100000)"
fill="#ACACAC" stroke="none">
<path d="M2435 4546 c-153 -71 -218 -261 -139 -406 115 -211 413 -212 528 0
79 145 14 335 -139 406 -70 33 -180 33 -250 0z"/>
<path d="M1500 3535 l-505 -505 210 1 210 0 390 384 389 384 -61 63 c-33 35
-75 89 -93 121 -17 31 -33 57 -33 57 -1 0 -229 -227 -507 -505z"/>
<path d="M3080 3983 c-18 -32 -60 -86 -93 -121 l-61 -63 389 -384 390 -384
210 0 210 -1 -505 505 c-278 278 -506 505 -507 505 0 0 -16 -26 -33 -57z"/>
<path d="M112 2704 c-55 -27 -82 -57 -100 -113 -9 -25 -12 -287 -12 -960 l0
-927 22 -44 c31 -60 81 -97 147 -110 74 -14 4708 -14 4782 0 66 13 116 50 147
110 l22 44 0 927 c0 682 -3 935 -12 960 -18 54 -48 87 -102 114 l-50 25 -2396
0 -2396 0 -52 -26z m863 -644 c81 -13 181 -63 200 -100 24 -46 19 -78 -19
-116 -42 -42 -69 -43 -139 -7 -99 51 -213 30 -284 -51 -42 -46 -56 -96 -51
-172 3 -50 10 -73 34 -106 38 -55 119 -98 185 -98 61 0 84 9 138 54 47 39 76
44 121 21 36 -19 50 -43 50 -89 0 -49 -54 -107 -138 -148 -62 -31 -73 -33
-172 -33 -97 0 -110 2 -170 31 -95 45 -162 111 -207 202 -37 75 -38 78 -38
191 0 112 1 119 34 183 38 76 122 163 190 198 41 21 142 48 186 49 11 1 47 -4
80 -9z m508 -30 l27 -30 0 -295 0 -295 71 0 c112 0 159 -33 159 -111 0 -20
-10 -40 -29 -60 l-29 -29 -155 0 c-149 0 -155 1 -180 24 -14 13 -29 35 -32 48
-3 12 -5 181 -3 374 3 336 4 353 23 374 44 49 103 49 148 0z m844 8 c29 -11
75 -36 102 -57 261 -195 225 -584 -67 -728 -74 -37 -79 -38 -186 -38 -104 0
-115 2 -179 32 -89 42 -168 121 -210 210 -43 93 -50 216 -17 312 79 234 329
355 557 269z m834 0 c29 -13 71 -41 92 -60 31 -30 37 -42 37 -77 0 -34 -6 -49
-29 -72 -40 -40 -78 -38 -152 7 -51 32 -64 36 -105 31 -58 -6 -97 -39 -73 -62
8 -8 63 -34 122 -58 186 -75 248 -136 255 -254 8 -120 -57 -219 -174 -263 -88
-33 -207 -26 -296 18 -131 64 -180 153 -122 221 22 26 33 31 70 31 34 0 51 -6
78 -30 45 -40 95 -60 149 -60 56 0 100 31 95 67 -4 30 -28 44 -186 109 -128
52 -162 84 -188 172 -26 89 10 194 88 252 86 63 235 76 339 28z m705 6 c49
-36 55 -95 15 -145 -18 -22 -28 -24 -133 -29 l-113 -5 -3 -62 -3 -63 95 0 c91
0 97 -1 128 -29 27 -24 33 -36 33 -71 0 -35 -6 -47 -33 -71 -31 -28 -37 -29
-127 -29 l-95 0 0 -65 0 -65 108 0 c86 0 111 -4 128 -18 52 -41 55 -109 8
-153 -25 -23 -32 -24 -189 -27 -182 -4 -212 4 -240 58 -23 44 -22 697 1 741
26 51 60 59 236 56 140 -2 159 -4 184 -23z m549 -8 c147 -64 225 -198 225
-389 0 -172 -53 -290 -164 -366 -67 -47 -133 -61 -279 -61 l-129 0 -29 29 -29
29 0 359 c0 387 1 391 54 414 11 5 86 7 166 6 110 -3 155 -7 185 -21z"/>
<path d="M2125 1861 c-109 -28 -175 -114 -175 -229 0 -205 269 -302 400 -144
118 142 33 354 -150 375 -25 3 -58 2 -75 -2z"/>
<path d="M4208 1640 l3 -222 64 4 c75 5 108 24 139 84 30 56 30 223 1 273 -33
56 -67 75 -143 79 l-67 4 3 -222z"/>
</g>
</svg>
