<?xml version="1.0" standalone="no"?>
<!DOCTYPE svg PUBLIC "-//W3C//DTD SVG 20010904//EN"
 "http://www.w3.org/TR/2001/REC-SVG-20010904/DTD/svg10.dtd">
<svg version="1.0" xmlns="http://www.w3.org/2000/svg"
 width="512.000000pt" height="512.000000pt" viewBox="0 0 512.000000 512.000000"
 preserveAspectRatio="xMidYMid meet">

<g transform="translate(0.000000,512.000000) scale(0.100000,-0.100000)"
fill="#FF3C69" stroke="none">
<path d="M2435 4546 c-153 -71 -218 -261 -139 -406 115 -211 413 -212 528 0
79 145 14 335 -139 406 -70 33 -180 33 -250 0z"/>
<path d="M1500 3535 l-505 -505 210 1 210 0 390 384 389 384 -61 63 c-33 35
-75 89 -93 121 -17 31 -33 57 -33 57 -1 0 -229 -227 -507 -505z"/>
<path d="M3080 3983 c-18 -32 -60 -86 -93 -121 l-61 -63 389 -384 390 -384
210 0 210 -1 -505 505 c-278 278 -506 505 -507 505 0 0 -16 -26 -33 -57z"/>
<path d="M112 2704 c-55 -27 -82 -57 -100 -113 -9 -25 -12 -287 -12 -960 l0
-927 22 -44 c31 -60 81 -97 147 -110 74 -14 4708 -14 4782 0 66 13 116 50 147
110 l22 44 0 927 c0 682 -3 935 -12 960 -18 54 -48 87 -102 114 l-50 25 -2396
0 -2396 0 -52 -26z m1319 -600 c262 -77 412 -338 341 -595 -43 -155 -155 -275
-310 -331 -84 -31 -235 -30 -317 2 -127 49 -218 130 -274 245 -131 271 6 583
298 676 71 23 190 24 262 3z m1003 -13 c197 -97 242 -355 89 -508 -66 -66
-122 -87 -240 -91 l-103 -4 0 -135 0 -135 -35 -35 c-32 -32 -40 -35 -73 -30
-24 4 -47 17 -64 37 l-28 30 0 411 c0 434 2 451 47 479 12 6 81 9 188 8 157
-3 174 -5 219 -27z m862 -5 c37 -37 43 -70 20 -115 -22 -42 -55 -51 -186 -51
l-120 0 0 -90 0 -90 100 0 c121 0 165 -15 184 -62 19 -44 10 -83 -26 -113 -28
-23 -37 -25 -144 -25 l-114 0 0 -95 0 -95 129 0 c123 0 131 -1 158 -24 23 -20
28 -32 28 -71 0 -39 -5 -51 -27 -70 -37 -32 -88 -38 -273 -34 l-157 4 -29 33
-29 32 0 418 c0 380 2 419 18 438 32 40 51 43 246 44 l188 0 34 -34z m408 23
c15 -7 94 -113 207 -275 100 -145 184 -264 186 -264 3 0 2 103 -2 228 -7 203
-6 233 9 264 30 63 107 78 155 30 l28 -27 6 -205 c12 -367 9 -607 -8 -640 -17
-32 -61 -60 -95 -60 -51 0 -80 32 -252 281 l-173 252 -5 -241 -5 -242 -26 -25
c-14 -14 -42 -28 -62 -32 -32 -5 -41 -1 -72 30 l-35 35 0 414 c1 442 1 446 51
474 30 17 61 17 93 3z"/>
<path d="M1204 1904 c-96 -34 -173 -139 -181 -248 -15 -194 172 -347 359 -292
156 45 240 201 194 361 -22 74 -97 153 -170 178 -60 20 -146 21 -202 1z"/>
<path d="M2180 1805 l0 -115 79 0 c70 0 83 3 110 25 61 52 60 133 -4 183 -23
18 -41 22 -106 22 l-79 0 0 -115z"/>
</g>
</svg>
