<svg xmlns="http://www.w3.org/2000/svg" width="4.814" height="6.972" viewBox="0 0 4.814 6.972">
  <g id="그룹_140" data-name="그룹 140" transform="translate(-341 -550.5)">
    <path id="선_41" data-name="선 41" d="M3.409,4.814a.37.37,0,0,1-.3-.151L.083.652A.417.417,0,0,1,.142.088.365.365,0,0,1,.674.151L3.7,4.162a.417.417,0,0,1-.059.564A.364.364,0,0,1,3.409,4.814Z" transform="translate(341 557.472) rotate(-90)" fill="#747676"/>
    <path id="선_42" data-name="선 42" d="M.379,4.814a.364.364,0,0,1-.236-.088.417.417,0,0,1-.059-.564L3.113.151A.365.365,0,0,1,3.645.088.417.417,0,0,1,3.7.652L.674,4.663A.37.37,0,0,1,.379,4.814Z" transform="translate(341 554.287) rotate(-90)" fill="#747676"/>
  </g>
</svg>
