<svg xmlns="http://www.w3.org/2000/svg" width="18" height="18" viewBox="0 0 18 18">
  <g id="그룹_288" data-name="그룹 288" transform="translate(-36 -712)">
    <g id="사각형_144" data-name="사각형 144" transform="translate(36 712)" fill="#ffffff" stroke="#ffffff" stroke-width="1">
      <rect width="8" height="8" rx="1" stroke="none"/>
      <rect x="0.5" y="0.5" width="7" height="7" rx="0.5" fill="none"/>
    </g>
    <g id="사각형_146" data-name="사각형 146" transform="translate(36 722)" fill="#ffffff" stroke="#ffffff" stroke-width="1">
      <rect width="8" height="8" rx="1" stroke="none"/>
      <rect x="0.5" y="0.5" width="7" height="7" rx="0.5" fill="none"/>
    </g>
    <g id="사각형_145" data-name="사각형 145" transform="translate(46 712)" fill="#ffffff" stroke="#ffffff" stroke-width="1">
      <rect width="8" height="8" rx="1" stroke="none"/>
      <rect x="0.5" y="0.5" width="7" height="7" rx="0.5" fill="none"/>
    </g>
    <path id="사각형_147" data-name="사각형 147" d="M1,0H7A1,1,0,0,1,8,1V5A3,3,0,0,1,5,8H1A1,1,0,0,1,0,7V1A1,1,0,0,1,1,0Z" transform="translate(46 722)" fill="#ffffff"/>
  </g>
</svg>
